#Comment line ignore any data following # character 
#Hierarchical Translation and Rotation (.htr) file 
[Header]	
#Header keywords are followed by a single value 
FileType HTR		#Single word string
DataType HTRS		#Translation followed by rotation and scale data
FileVersion 1		#integer
NumSegments 25		#integer
NumFrames 4		#integer
DataFrameRate 30		#integer, data frame rate in this file
EulerRotationOrder ZYX
CalibrationUnits mm
RotationUnits Degrees
GlobalAxisofGravity Y
BoneLengthAxis Y
ScaleFactor 1.00
[SegmentNames&Hierarchy]
#CHILD	PARENT
BN_Tick_Root GLOBAL
BN_Torso BN_Tick_Root
BN_L_Leg_Front01 BN_Torso
BN_L_Leg_Rear01 BN_Torso
BN_MetalTop BN_Torso
BN_Neck BN_Torso
BN_R_Leg_Front01 BN_Torso
BN_R_Leg_Rear01 BN_Torso
BN_Sack BN_Torso
BN_L_Leg_Front02 BN_L_Leg_Front01
BN_L_Leg_Front03 BN_L_Leg_Front02
BN_L_Leg_Rear02 BN_L_Leg_Rear01
BN_L_Leg_Rear03 BN_L_Leg_Rear02
BN_Head BN_Neck
BN_Needle BN_Head
BN_R_Leg_Front02 BN_R_Leg_Front01
BN_R_Leg_Front03 BN_R_Leg_Front02
BN_R_Leg_Rear02 BN_R_Leg_Rear01
BN_R_Leg_Rear03 BN_R_Leg_Rear02
BN_SackDef01 BN_Sack
BN_SackDef02 BN_Sack
BN_SackDef03 BN_Sack
BN_SackDef04 BN_Sack
BN_SackDef05 BN_Sack
BN_SackDef06 BN_Sack
[BasePosition]
#SegmentName Tx, Ty, Tz, Rx, Ry, Rz, BoneLength
BN_Tick_Root 0.000000 0.000000 0.000000 -90.000000 0.000000 0.000000 10.000000 
BN_Torso 0.000000 0.000000 0.000000 0.000000 0.000000 0.000000 10.000000 
BN_L_Leg_Front01 0.000000 0.000000 0.000000 0.000000 0.000000 0.000000 10.000000 
BN_L_Leg_Rear01 0.000000 0.000000 0.000000 0.000000 0.000000 0.000000 10.000000 
BN_MetalTop 0.000000 0.000000 0.000000 0.000000 0.000000 0.000000 10.000000 
BN_Neck 0.000000 0.000000 0.000000 0.000000 0.000000 0.000000 10.000000 
BN_R_Leg_Front01 0.000000 0.000000 0.000000 0.000000 0.000000 0.000000 10.000000 
BN_R_Leg_Rear01 0.000000 0.000000 0.000000 0.000000 0.000000 0.000000 10.000000 
BN_Sack 0.000000 0.000000 0.000000 0.000000 0.000000 0.000000 10.000000 
BN_L_Leg_Front02 0.000000 0.000000 0.000000 0.000000 0.000000 0.000000 10.000000 
BN_L_Leg_Front03 0.000000 0.000000 0.000000 0.000000 0.000000 0.000000 10.000000 
BN_L_Leg_Rear02 0.000000 0.000000 0.000000 0.000000 0.000000 0.000000 10.000000 
BN_L_Leg_Rear03 0.000000 0.000000 0.000000 0.000000 0.000000 0.000000 10.000000 
BN_Head 0.000000 0.000000 0.000000 0.000000 0.000000 0.000000 10.000000 
BN_Needle 0.000000 0.000000 0.000000 0.000000 0.000000 0.000000 10.000000 
BN_R_Leg_Front02 0.000000 0.000000 0.000000 0.000000 0.000000 0.000000 10.000000 
BN_R_Leg_Front03 0.000000 0.000000 0.000000 0.000000 0.000000 0.000000 10.000000 
BN_R_Leg_Rear02 0.000000 0.000000 0.000000 0.000000 0.000000 0.000000 10.000000 
BN_R_Leg_Rear03 0.000000 0.000000 0.000000 0.000000 0.000000 0.000000 10.000000 
BN_SackDef01 0.000000 0.000000 0.000000 0.000000 0.000000 0.000000 10.000000 
BN_SackDef02 0.000000 0.000000 0.000000 0.000000 0.000000 0.000000 10.000000 
BN_SackDef03 0.000000 0.000000 0.000000 0.000000 0.000000 0.000000 10.000000 
BN_SackDef04 0.000000 0.000000 0.000000 0.000000 0.000000 0.000000 10.000000 
BN_SackDef05 0.000000 0.000000 0.000000 0.000000 0.000000 0.000000 10.000000 
BN_SackDef06 0.000000 0.000000 0.000000 0.000000 0.000000 0.000000 10.000000 
#Beginning of Data. Separated by tabs
#Fr	Tx	Ty	Tz	Rx	Ry	Rz	SF
[BN_Tick_Root]
92 0.000000 -0.000200 0.000000 0.000000 0.000000 -0.000020 0.000200
93 0.000000 -0.000202 0.000000 0.000000 0.000000 -0.000020 0.000202
94 0.000000 -0.000204 0.000000 0.000000 0.000000 -0.000020 0.000204
95 0.000000 -0.000206 0.000000 0.000000 0.000000 -0.000020 0.000206
[BN_Torso]
92 65.938774 51.660397 312.774841 24.816149 -0.432751 10.220594 323.797485
93 65.938774 18.855217 344.678864 25.711088 -0.436873 10.218952 351.435547
94 65.938774 -18.846300 376.583862 41.769234 -0.432718 10.220872 382.777374
95 65.938774 -49.864746 391.086670 56.641994 -0.433481 10.221399 399.728912
[BN_L_Leg_Front01]
92 -68.477791 10.734189 -26.804373 49.365822 70.243660 -138.636993 74.316254
93 -68.477791 10.734189 -26.804373 52.947662 71.690712 -140.093277 74.316254
94 -68.477791 10.734189 -26.804373 81.420853 60.618668 -117.433380 74.316254
95 -68.477791 10.734189 -26.804373 93.825233 48.789581 -109.292145 74.316254
[BN_L_Leg_Rear01]
92 -72.133743 -73.994843 -18.268616 98.017502 51.840641 -128.222870 104.939293
93 -72.133743 -73.994843 -18.268616 107.733589 57.864525 -125.522827 104.939293
94 -72.133743 -73.994843 -18.268616 128.606201 47.476963 -112.348351 104.939293
95 -72.133743 -73.994843 -18.268616 140.267471 35.084564 -106.173927 104.939293
[BN_MetalTop]
92 0.000008 13.737477 26.403606 83.730865 -41.796932 -98.118736 29.763546
93 0.000008 13.737477 26.403606 84.170242 -37.705914 -98.794510 29.763546
94 0.000008 13.737477 26.403606 83.266792 -47.405781 -97.232941 29.763546
95 0.000008 13.737477 26.403606 81.114967 -58.654373 -94.765427 29.763546
[BN_Neck]
92 0.000014 95.233284 10.002091 -89.999672 -65.297531 89.999657 95.757088
93 0.000014 95.233284 10.002091 -89.999672 -65.297531 89.999657 95.757088
94 0.000014 95.233284 10.002091 -89.999672 -65.297531 89.999657 95.757088
95 0.000014 95.233284 10.002091 -89.999672 -65.297531 89.999657 95.757088
[BN_R_Leg_Front01]
92 68.477768 10.734107 -26.804314 -33.018898 63.365578 -49.357658 74.316193
93 68.477768 10.734107 -26.804314 -36.441418 64.464188 -46.894417 74.316193
94 68.477768 10.734107 -26.804314 -57.335342 52.933384 -61.039474 74.316193
95 68.477768 10.734107 -26.804314 -68.562477 41.232910 -66.773445 74.316193
[BN_R_Leg_Rear01]
92 72.133751 -73.994873 -18.268644 -72.953072 42.317207 -76.681557 104.939331
93 72.133751 -73.994873 -18.268644 -75.747719 48.859154 -75.654510 104.939331
94 72.133751 -73.994873 -18.268644 -84.495804 37.707401 -78.525040 104.939331
95 72.133751 -73.994873 -18.268644 -91.326729 25.372147 -80.111748 104.939331
[BN_Sack]
92 -0.000000 -78.024918 33.657791 93.418304 -2.649987 -93.484390 84.974907
93 -0.000000 -78.024918 33.657791 93.480225 -1.894051 -94.690208 84.974907
94 -0.000000 -78.024918 33.657791 93.486618 -1.544139 -95.334732 84.974907
95 -0.000000 -78.024918 33.657791 93.464668 -1.933090 -95.185104 84.974907
[BN_L_Leg_Front02]
92 142.805023 -0.000015 -0.000104 0.185123 0.286854 -91.493408 142.805023
93 142.805023 -0.000015 -0.000104 0.201402 0.096721 -73.417404 142.805023
94 142.805023 -0.000015 -0.000104 0.157507 -0.172441 -46.913372 142.805023
95 142.805023 -0.000015 -0.000104 0.047221 -0.377639 -24.190382 142.805023
[BN_L_Leg_Front03]
92 124.143021 -0.000045 0.000007 0.353870 -0.441437 98.896126 124.143021
93 124.143021 -0.000045 0.000007 0.353759 -0.434444 75.502426 124.143021
94 124.143021 -0.000045 0.000007 0.352841 -0.263781 36.018970 124.143021
95 124.143021 -0.000045 0.000007 0.352809 0.002174 -0.169531 124.143021
[BN_L_Leg_Rear02]
92 139.939041 0.000075 -0.000022 0.086511 -0.219608 93.549652 139.939041
93 139.939041 0.000075 -0.000022 0.111432 -0.228823 87.918510 139.939041
94 139.939041 0.000075 -0.000022 0.113570 -0.208269 84.671288 139.939041
95 139.939041 0.000075 -0.000022 0.118112 -0.211104 84.190361 139.939041
[BN_L_Leg_Rear03]
92 142.839615 0.000179 -0.000060 0.000448 -0.002304 -112.011070 142.839615
93 142.839615 0.000179 -0.000060 0.000311 -0.002326 -105.245338 142.839615
94 142.839615 0.000179 -0.000060 0.000228 -0.002336 -101.142845 142.839615
95 142.839615 0.000179 -0.000060 0.000215 -0.002337 -100.520210 142.839615
[BN_Head]
92 57.062447 -0.000030 0.000000 4.437300 20.272196 59.713722 57.062447
93 57.062447 -0.000030 0.000000 4.290356 20.334679 60.097382 57.062447
94 57.062447 -0.000030 0.000000 3.441839 20.413105 73.715004 57.062447
95 57.062447 -0.000030 0.000000 2.518239 20.154474 86.659027 57.062447
[BN_Needle]
92 43.343006 326.398193 -0.000119 0.000003 0.000030 87.896805 329.263428
93 43.343006 326.398193 -0.000119 0.000003 0.000030 87.896805 329.263428
94 43.343006 326.398193 -0.000119 0.000003 0.000030 87.896805 329.263428
95 42.811993 311.939636 -0.000148 0.000003 0.000030 87.896805 314.863770
[BN_R_Leg_Front02]
92 142.804947 -0.000060 0.000060 -0.189454 0.289448 91.606056 142.804947
93 142.804947 -0.000060 0.000060 -0.202342 0.098442 73.841614 142.804947
94 142.804947 -0.000060 0.000060 -0.158244 -0.166109 47.748531 142.804947
95 142.804947 -0.000060 0.000060 -0.044087 -0.378321 24.224155 142.804947
[BN_R_Leg_Front03]
92 124.143005 -0.000060 -0.000156 -0.354588 -0.440797 -99.030586 124.143005
93 124.143005 -0.000060 -0.000156 -0.352793 -0.437265 -76.093605 124.143005
94 124.143005 -0.000060 -0.000156 -0.354434 -0.274600 -37.333641 124.143005
95 124.143005 -0.000060 -0.000156 -0.354435 0.002171 0.167839 124.143005
[BN_R_Leg_Rear02]
92 139.939011 -0.000149 0.000015 -0.095688 -0.227116 -91.127129 139.939011
93 139.939011 -0.000149 0.000015 -0.109594 -0.226253 -87.639320 139.939011
94 139.939011 -0.000149 0.000015 -0.110244 -0.206501 -85.156113 139.939011
95 139.939011 -0.000149 0.000015 -0.110823 -0.206190 -84.834030 139.939011
[BN_R_Leg_Rear03]
92 142.839417 0.000075 0.000119 0.002314 -0.000391 109.161263 142.839417
93 142.839417 0.000075 0.000119 0.002327 -0.000304 104.898323 142.839417
94 142.839417 0.000075 0.000119 0.002335 -0.000241 101.764595 142.839417
95 142.839417 0.000075 0.000119 0.002336 -0.000232 101.349510 142.839417
[BN_SackDef01]
92 597.936646 -15.747055 103.387047 -128.408218 -44.374973 -11.740845 607.013184
93 597.936646 -15.747053 103.387047 -128.408218 -44.374973 -11.740845 607.013184
94 597.936646 -15.747050 103.387054 -128.408218 -44.374973 -11.740845 607.013184
95 597.936646 -15.747048 103.387054 -128.408218 -44.374973 -11.740845 607.013184
[BN_SackDef02]
92 233.072159 -211.160019 118.223587 32.077126 -27.375721 -88.781525 335.988098
93 233.072159 -211.160019 118.223595 32.077126 -27.375721 -88.781525 335.988098
94 233.072159 -211.160019 118.223595 32.077126 -27.375721 -88.781525 335.988098
95 233.072159 -211.160019 118.223595 32.077126 -27.375721 -88.781525 335.988098
[BN_SackDef03]
92 597.936523 -15.747024 -103.387169 18.144459 44.375008 -11.740894 607.013123
93 597.936523 -15.747022 -103.387169 18.144459 44.375008 -11.740894 607.013123
94 597.936523 -15.747020 -103.387169 18.144459 44.375008 -11.740894 607.013123
95 597.936523 -15.747018 -103.387169 18.144459 44.375008 -11.740894 607.013123
[BN_SackDef04]
92 233.072037 -211.159973 -118.223366 146.059982 27.375723 -88.781555 335.987915
93 233.072037 -211.159973 -118.223366 146.059982 27.375723 -88.781555 335.987915
94 233.072037 -211.159973 -118.223366 146.059982 27.375723 -88.781555 335.987915
95 233.072037 -211.159973 -118.223366 146.059982 27.375723 -88.781555 335.987915
[BN_SackDef05]
92 289.341003 263.516815 -164.100403 0.155741 51.314110 90.605110 424.368073
93 289.341003 263.516815 -164.100403 0.155741 51.314110 90.605110 424.368073
94 289.341003 263.516815 -164.100403 0.155741 51.314110 90.605110 424.368073
95 289.341003 263.516846 -164.100403 0.155741 51.314110 90.605110 424.368103
[BN_SackDef06]
92 289.341003 263.516968 164.100021 152.058487 -51.314072 90.605019 424.368011
93 289.341003 263.516968 164.100021 152.058487 -51.314072 90.605019 424.368011
94 289.341003 263.516968 164.100021 152.058487 -51.314072 90.605019 424.368011
95 289.341003 263.516968 164.100021 152.058487 -51.314072 90.605019 424.368011
